<svg xmlns="http://www.w3.org/2000/svg" viewBox="0 0 64 64" fill="none">
  <rect x="8" y="20" width="48" height="40" rx="2" fill="#2563eb"/>
  <rect x="4" y="16" width="56" height="8" rx="2" fill="#1d4ed8"/>
  <rect x="24" y="4" width="16" height="16" rx="1" fill="#1e40af"/>
  <rect x="29" y="7" width="6" height="6" rx="0.5" fill="#93c5fd"/>
  <!-- Windows row 1 -->
  <rect x="14" y="26" width="6" height="6" rx="0.5" fill="#bfdbfe"/>
  <rect x="24" y="26" width="6" height="6" rx="0.5" fill="#bfdbfe"/>
  <rect x="34" y="26" width="6" height="6" rx="0.5" fill="#bfdbfe"/>
  <rect x="44" y="26" width="6" height="6" rx="0.5" fill="#bfdbfe"/>
  <!-- Windows row 2 -->
  <rect x="14" y="36" width="6" height="6" rx="0.5" fill="#bfdbfe"/>
  <rect x="24" y="36" width="6" height="6" rx="0.5" fill="#bfdbfe"/>
  <rect x="34" y="36" width="6" height="6" rx="0.5" fill="#bfdbfe"/>
  <rect x="44" y="36" width="6" height="6" rx="0.5" fill="#bfdbfe"/>
  <!-- Door -->
  <rect x="25" y="48" width="14" height="12" rx="1" fill="#1e3a5f"/>
  <circle cx="36" cy="54" r="1.5" fill="#fbbf24"/>
</svg>
